<?xml version="1.0" encoding="UTF-8"?>
<svg width="22px" height="26px" viewBox="0 0 22 26" version="1.1" xmlns="http://www.w3.org/2000/svg" xmlns:xlink="http://www.w3.org/1999/xlink">
    <!-- Generator: Sketch 54.1 (76490) - https://sketchapp.com -->
    <title>ic_Round</title>
    <desc>Created with Sketch.</desc>
    <defs>
        <path d="M180,35 C175.581722,35 172,30.5228475 172,25 C172,19.4771525 175.581722,15 180,15 C184.418278,15 188,19.4771525 188,25 C188,30.5228475 184.418278,35 180,35 Z M180,33.3333333 C183.681898,33.3333333 186.666667,29.6023729 186.666667,25 C186.666667,20.3976271 183.681898,16.6666667 180,16.6666667 C176.318102,16.6666667 173.333333,20.3976271 173.333333,25 C173.333333,29.6023729 176.318102,33.3333333 180,33.3333333 Z" id="path-1"></path>
        <filter x="-21.9%" y="-12.5%" width="143.8%" height="135.0%" filterUnits="objectBoundingBox" id="filter-2">
            <feMorphology radius="0.75" operator="dilate" in="SourceAlpha" result="shadowSpreadOuter1"></feMorphology>
            <feOffset dx="0" dy="1" in="shadowSpreadOuter1" result="shadowOffsetOuter1"></feOffset>
            <feGaussianBlur stdDeviation="0.75" in="shadowOffsetOuter1" result="shadowBlurOuter1"></feGaussianBlur>
            <feComposite in="shadowBlurOuter1" in2="SourceAlpha" operator="out" result="shadowBlurOuter1"></feComposite>
            <feColorMatrix values="0 0 0 0 0   0 0 0 0 0   0 0 0 0 0  0 0 0 0.225685009 0" type="matrix" in="shadowBlurOuter1"></feColorMatrix>
        </filter>
    </defs>
    <g id="BusyBus-Icons" stroke="none" stroke-width="1" fill="none" fill-rule="evenodd">
        <g id="BusyBus-Draft-4" transform="translate(-169.000000, -603.000000)">
            <g id="Bottom-Nav-Copy" transform="translate(0.000000, 590.000000)">
                <g id="ic_Round">
                    <use fill="black" fill-opacity="1" filter="url(#filter-2)" xlink:href="#path-1"></use>
                    <use stroke="#FFFFFF" stroke-width="1.5" fill="#FFFFFF" fill-rule="evenodd" xlink:href="#path-1"></use>
                </g>
            </g>
        </g>
    </g>
</svg>