<?xml version="1.0" encoding="UTF-8"?>
<svg width="59px" height="47px" viewBox="0 0 59 47" version="1.1" xmlns="http://www.w3.org/2000/svg" xmlns:xlink="http://www.w3.org/1999/xlink">
    <!-- Generator: Sketch 54.1 (76490) - https://sketchapp.com -->
    <title>Bus Icon</title>
    <desc>Created with Sketch.</desc>
    <g id="BusyBus-Icons" stroke="none" stroke-width="1" fill="none" fill-rule="evenodd">
        <g id="BusyBus-Draft-4" transform="translate(-24.000000, -120.000000)">
            <g id="Title-Page" transform="translate(24.000000, 117.000000)">
                <g id="Bus-Icon" transform="translate(0.000000, 3.000000)">
                    <path d="M40.5758813,38.723272 L21.6127369,38.7232709 C21.6132674,38.7724323 21.6135337,38.8217003 21.6135337,38.8710711 C21.6135337,43.3605545 19.4111014,47 16.6942635,47 C13.9774255,47 11.7749932,43.3605545 11.7749932,38.8710711 C11.7749932,38.8217001 11.7752596,38.772432 11.77579,38.7232703 L3.51649006,38.7232698 C1.85963721,38.7232698 0.516492602,37.3801252 0.516492616,35.7232723 C0.516492616,35.7157139 0.516521181,35.7081555 0.51657831,35.7005973 C0.603425119,24.2107574 1.19597162,15.5621335 2.29421782,9.75472554 C3.36423189,4.09660607 8.30813555,2.14690699e-05 14.0665421,2.04056301e-05 L14.0665421,8.29813264e-06 L55.9999981,-2.97598976e-13 C57.6568523,-3.05981592e-07 58.9999983,1.3431452 58.9999986,2.99999945 L58.9999981,35.7232728 C58.9999981,37.3801271 57.6568523,38.7232728 55.9999981,38.7232728 L50.4128283,38.7232725 C50.4133587,38.7724334 50.413625,38.8217008 50.413625,38.8710711 C50.413625,43.3605545 48.2111927,47 45.4943548,47 C42.7775168,47 40.5750845,43.3605545 40.5750845,38.8710711 C40.5750845,38.8217007 40.5753509,38.7724331 40.5758813,38.723272 Z M21.6127369,38.7232709 C21.5650313,34.3019819 19.3812244,30.7421421 16.6942635,30.7421421 C14.0073027,30.7421421 11.8234958,34.3019816 11.77579,38.7232703 L21.6127369,38.7232709 Z M40.5758813,38.723272 L50.4128283,38.7232725 C50.3651232,34.3019828 48.181316,30.7421421 45.4943548,30.7421421 C42.8073936,30.7421421 40.6235866,34.3019825 40.5758813,38.723272 Z" id="Combined-Shape" fill="#101010"></path>
                    <rect id="Rectangle" fill="#FFFCFC" x="20" y="6.35135135" width="10" height="20.3243243"></rect>
                    <path d="M7.64472478,6.81815235 L16,6.81815235 C16.5522847,6.81815235 17,7.2658676 17,7.81815235 L17,25.6756757 C17,26.2279604 16.5522847,26.6756757 16,26.6756757 L8,26.6756757 C7.44771525,26.6756757 7,26.2279604 7,25.6756757 L7,7.46287713 C7,7.10680547 7.28865312,6.81815235 7.64472478,6.81815235 Z" id="Rectangle" fill="#FFFCFC"></path>
                    <rect id="Rectangle" fill="#FFFCFC" x="32" y="6.35135135" width="10" height="20.3243243"></rect>
                    <rect id="Rectangle" fill="#FFFCFC" x="45" y="6.35135135" width="10" height="20.3243243" rx="1"></rect>
                    <ellipse id="Oval" fill="#1C1A1A" transform="translate(9.087898, 27.253836) rotate(11.000000) translate(-9.087898, -27.253836) " cx="9.08789766" cy="27.2538363" rx="1.25752308" ry="5.53697751"></ellipse>
                </g>
            </g>
        </g>
    </g>
</svg>