<?xml version="1.0" encoding="UTF-8"?>
<svg width="13px" height="27px" viewBox="0 0 13 27" version="1.1" xmlns="http://www.w3.org/2000/svg" xmlns:xlink="http://www.w3.org/1999/xlink">
    <!-- Generator: Sketch 54.1 (76490) - https://sketchapp.com -->
    <title>Shape</title>
    <desc>Created with Sketch.</desc>
    <defs>
        <filter x="-3.3%" y="-20.0%" width="106.7%" height="140.0%" filterUnits="objectBoundingBox" id="filter-1">
            <feOffset dx="0" dy="2" in="SourceAlpha" result="shadowOffsetOuter1"></feOffset>
            <feGaussianBlur stdDeviation="2" in="shadowOffsetOuter1" result="shadowBlurOuter1"></feGaussianBlur>
            <feColorMatrix values="0 0 0 0 0   0 0 0 0 0   0 0 0 0 0  0 0 0 0.5 0" type="matrix" in="shadowBlurOuter1" result="shadowMatrixOuter1"></feColorMatrix>
            <feMerge>
                <feMergeNode in="shadowMatrixOuter1"></feMergeNode>
                <feMergeNode in="SourceGraphic"></feMergeNode>
            </feMerge>
        </filter>
    </defs>
    <g id="BusyBus-Icons" stroke="none" stroke-width="1" fill="none" fill-rule="evenodd">
        <g id="BusyBus-Draft-4" transform="translate(-331.000000, -42.000000)" fill="#FFFFFF">
            <g id="Washington/State" filter="url(#filter-1)" transform="translate(0.000000, 24.000000)">
                <g id="Icons-/-Navigation-24px-/-White-/-More" transform="translate(330.000000, 16.000000)">
                    <g id="More" transform="translate(0.750000, 0.000000)">
                        <path d="M7,9 C8.28333333,9 9.33333333,7.9875 9.33333333,6.75 C9.33333333,5.5125 8.28333333,4.5 7,4.5 C5.71666667,4.5 4.66666667,5.5125 4.66666667,6.75 C4.66666667,7.9875 5.71666667,9 7,9 L7,9 Z M7,11.25 C5.71666667,11.25 4.66666667,12.2625 4.66666667,13.5 C4.66666667,14.7375 5.71666667,15.75 7,15.75 C8.28333333,15.75 9.33333333,14.7375 9.33333333,13.5 C9.33333333,12.2625 8.28333333,11.25 7,11.25 L7,11.25 Z M7,18 C5.71666667,18 4.66666667,19.0125 4.66666667,20.25 C4.66666667,21.4875 5.71666667,22.5 7,22.5 C8.28333333,22.5 9.33333333,21.4875 9.33333333,20.25 C9.33333333,19.0125 8.28333333,18 7,18 L7,18 Z" id="Shape"></path>
                    </g>
                </g>
            </g>
        </g>
    </g>
</svg>