<?xml version="1.0" encoding="UTF-8"?>
<svg width="20px" height="20px" viewBox="0 0 20 20" version="1.1" xmlns="http://www.w3.org/2000/svg" xmlns:xlink="http://www.w3.org/1999/xlink">
    <!-- Generator: Sketch 54.1 (76490) - https://sketchapp.com -->
    <title>Shape</title>
    <desc>Created with Sketch.</desc>
    <g id="BusyBus-Icons" stroke="none" stroke-width="1" fill="none" fill-rule="evenodd">
        <g id="Artboard" transform="translate(-3.000000, -2.000000)" fill="#FAF9F9">
            <path d="M17.2857143,14.5714286 L16.3714286,14.5714286 L16.0285714,14.2285714 C17.1714286,12.9714286 17.8571429,11.2571429 17.8571429,9.42857143 C17.8571429,5.31428571 14.5428571,2 10.4285714,2 C6.31428571,2 3,5.31428571 3,9.42857143 C3,13.5428571 6.31428571,16.8571429 10.4285714,16.8571429 C12.2571429,16.8571429 13.9714286,16.1714286 15.2285714,15.0285714 L15.5714286,15.3714286 L15.5714286,16.2857143 L21.2857143,22 L23,20.2857143 L17.2857143,14.5714286 L17.2857143,14.5714286 Z M10.5,14.5 C7.72222222,14.5 5.5,12.2777778 5.5,9.5 C5.5,6.72222222 7.72222222,4.5 10.5,4.5 C13.2777778,4.5 15.5,6.72222222 15.5,9.5 C15.5,12.2777778 13.2777778,14.5 10.5,14.5 L10.5,14.5 Z" id="Shape"></path>
        </g>
    </g>
</svg>