<?xml version="1.0" encoding="UTF-8"?>
<svg width="10px" height="18px" viewBox="0 0 10 18" version="1.1" xmlns="http://www.w3.org/2000/svg" xmlns:xlink="http://www.w3.org/1999/xlink">
    <!-- Generator: Sketch 54.1 (76490) - https://sketchapp.com -->
    <title>Icon</title>
    <desc>Created with Sketch.</desc>
    <g id="Material-GUI-" stroke="none" stroke-width="1" fill="none" fill-rule="evenodd">
        <g id="Route" transform="translate(-190.000000, -127.000000)" fill="#4285F4" fill-rule="nonzero">
            <g id="Tool-bar">
                <g id="Tag" transform="translate(177.000000, 120.000000)">
                    <path d="M18.7692308,10.5769231 C19.6153846,10.5769231 20.3076923,9.88461538 20.3076923,9.03846154 C20.3076923,8.19230769 19.6153846,7.5 18.7692308,7.5 C17.9230769,7.5 17.2307692,8.19230769 17.2307692,9.03846154 C17.2307692,9.88461538 17.9230769,10.5769231 18.7692308,10.5769231 Z M15.9230769,13.1923077 L13.7692308,24.0384615 L15.3846154,24.0384615 L16.7692308,17.8846154 L18.3846154,19.4230769 L18.3846154,24.0384615 L19.9230769,24.0384615 L19.9230769,18.2692308 L18.3076923,16.7307692 L18.7692308,14.4230769 C19.7692308,15.5769231 21.3076923,16.3461538 23,16.3461538 L23,14.8076923 C21.5384615,14.8076923 20.3076923,14.0384615 19.6923077,12.9615385 L18.9230769,11.7307692 C18.6153846,11.2692308 18.1538462,10.9615385 17.6153846,10.9615385 C17.3846154,10.9615385 17.2307692,11.0384615 17,11.0384615 L13,12.7307692 L13,16.3461538 L14.5384615,16.3461538 L14.5384615,13.7307692 L15.9230769,13.1923077 L15.9230769,13.1923077 Z" id="Icon"></path>
                </g>
            </g>
        </g>
    </g>
</svg>