<?xml version="1.0" encoding="UTF-8"?>
<svg width="93px" height="14px" viewBox="0 0 93 14" version="1.1" xmlns="http://www.w3.org/2000/svg" xmlns:xlink="http://www.w3.org/1999/xlink">
    <!-- Generator: Sketch 54.1 (76490) - https://sketchapp.com -->
    <title>Bars/Status bar Content White</title>
    <desc>Created with Sketch.</desc>
    <g id="BusyBus-Icons" stroke="none" stroke-width="1" fill="none" fill-rule="evenodd">
        <g id="BusyBus-Draft-4" transform="translate(-259.000000, -5.000000)">
            <g id="Status-Bar">
                <g id="Bars/Status-bar-Content-White" transform="translate(242.000000, 0.000000)">
                    <rect id="bounds" x="0" y="0" width="118" height="24"></rect>
                    <g id="time" opacity="0.9" stroke-width="1" fill-rule="evenodd" transform="translate(82.000000, 4.000000)" fill="#FFFFFF" font-family="Roboto-Medium, Roboto Medium" font-size="14" font-weight="normal">
                        <text id="9:57">
                            <tspan x="0.416992188" y="13">9:57</tspan>
                        </text>
                    </g>
                    <g id="battery" stroke-width="1" fill-rule="evenodd" transform="translate(63.000000, 4.000000)">
                        <polygon id="bounds" points="0 0 16 0 16 16 0 16"></polygon>
                        <polygon id="Shape" fill="#FFFFFF" points="9 1.875 9 1 6 1 6 1.875 3 1.875 3 15 12 15 12 1.875"></polygon>
                    </g>
                    <g id="cellular" stroke-width="1" fill-rule="evenodd" transform="translate(43.000000, 4.000000)">
                        <polygon id="bounds" points="0 0 16 0 16 16 0 16"></polygon>
                        <polygon id="Shape" fill="#FFFFFF" points="0 15 14 15 14 1"></polygon>
                    </g>
                    <g id="wifi" stroke-width="1" fill-rule="evenodd" transform="translate(16.000000, 4.000000)">
                        <polygon id="bounds" points="2 0 18 0 18 16 2 16"></polygon>
                        <path d="M0.977372085,4.01593123 C3.48821908,2.12256382 6.61301513,1 10,1 C13.3869849,1 16.5117809,2.12256382 19.0226279,4.01593123 L10,15 L0.977372085,4.01593123 Z" id="Shape" fill="#FFFFFF"></path>
                    </g>
                </g>
            </g>
        </g>
    </g>
</svg>